<svg width="64" height="70" viewBox="0 0 64 70" fill="none" xmlns="http://www.w3.org/2000/svg">
<g id="Vector">
<path d="M21.6733 5.71786C26.4411 -1.90595 37.5588 -1.90595 42.3267 5.71786C44.4718 9.14791 48.1844 11.2884 52.2317 11.4284C61.2273 11.7397 66.7862 21.3543 62.5583 29.2894C60.6562 32.8595 60.6561 37.1404 62.5583 40.7106C66.7862 48.6457 61.2273 58.2603 52.2317 58.5716C48.1844 58.7116 44.4718 60.8521 42.3267 64.2821C37.5588 71.906 26.4411 71.906 21.6733 64.2821C19.5282 60.8521 15.8156 58.7116 11.7683 58.5716C2.77267 58.2603 -2.78618 48.6457 1.44168 40.7106C3.34385 37.1404 3.34385 32.8595 1.44168 29.2894C-2.78618 21.3543 2.77267 11.7397 11.7683 11.4284C15.8156 11.2884 19.5282 9.14791 21.6733 5.71786Z" fill="#09B1A7"/>
<path fill-rule="evenodd" clip-rule="evenodd" d="M46.9532 24.2302C47.9628 25.0639 48.1044 26.557 47.2696 27.5651L30.2699 48.0938C29.4446 49.0904 27.9714 49.2418 26.9601 48.4339L17.0766 40.5383C16.0536 39.7211 15.8878 38.2305 16.7062 37.2089C17.5245 36.1874 19.0172 36.0218 20.0402 36.839L28.1012 43.2787L43.6136 24.5462C44.4484 23.538 45.9436 23.3966 46.9532 24.2302Z" fill="white"/>
</g>
</svg>
